<?xml version="1.0" encoding="UTF-8"?>
<svg version="1.1" xmlns="http://www.w3.org/2000/svg" width="500" height="500">
<path d="M0 0 C5.12918959 2.71146586 8.82694038 6.76665296 10.95720387 12.14161873 C11.83733156 15.31753042 12.08497861 17.88620949 12.08317566 21.17160034 C12.08737015 22.31999893 12.09156464 23.46839752 12.09588623 24.65159607 C12.09026672 25.89820511 12.08464722 27.14481415 12.07885742 28.42919922 C12.07993162 29.7673095 12.08187235 31.10541931 12.08460999 32.44352722 C12.08945162 36.07541603 12.08180133 39.7071816 12.07165694 43.33905554 C12.06281703 47.17445051 12.06463535 51.00984227 12.0650177 54.84524536 C12.06408063 61.313192 12.05540807 67.78109181 12.04174805 74.24902344 C12.02619499 81.6386885 12.02074402 89.02830172 12.0214836 96.41798198 C12.02217093 104.36850878 12.01514605 112.31901654 12.006037 120.26953745 C12.00394513 122.51299397 12.00320123 124.75644724 12.00279808 126.99990463 C11.99746826 141.8369218 11.91480346 156.67169084 11.52341521 171.50421548 C11.47211352 173.48794255 11.4290584 175.47187768 11.38636303 177.45580864 C11.01680263 189.73448357 8.82580061 201.42580467 5.8359375 213.3125 C5.65627441 214.05177734 5.47661133 214.79105469 5.29150391 215.55273438 C3.30986013 223.60352614 0.44113903 230.87136404 -3.1640625 238.3125 C-3.74935481 239.61051363 -4.33114148 240.91011146 -4.91015625 242.2109375 C-11.52930471 256.94020228 -19.72993108 269.99658589 -29.9140625 282.51953125 C-32.20947714 285.2831022 -32.20947714 285.2831022 -34.1640625 288.3125 C-34.8240625 288.3125 -35.4840625 288.3125 -36.1640625 288.3125 C-36.421875 288.89515625 -36.6796875 289.4778125 -36.9453125 290.078125 C-38.26240267 292.4927903 -39.71494634 294.12990177 -41.6640625 296.0625 C-42.2725 296.67609375 -42.8809375 297.2896875 -43.5078125 297.921875 C-45.1640625 299.3125 -45.1640625 299.3125 -47.1640625 299.3125 C-47.1640625 299.9725 -47.1640625 300.6325 -47.1640625 301.3125 C-47.8240625 301.3125 -48.4840625 301.3125 -49.1640625 301.3125 C-49.1640625 301.9725 -49.1640625 302.6325 -49.1640625 303.3125 C-49.8240625 303.3125 -50.4840625 303.3125 -51.1640625 303.3125 C-51.1640625 303.9725 -51.1640625 304.6325 -51.1640625 305.3125 C-52.77783203 306.78955078 -52.77783203 306.78955078 -55.046875 308.5078125 C-55.87735352 309.13743896 -56.70783203 309.76706543 -57.56347656 310.41577148 C-58.46291992 311.08294189 -59.36236328 311.7501123 -60.2890625 312.4375 C-61.20397461 313.11820557 -62.11888672 313.79891113 -63.06152344 314.50024414 C-70.16838085 319.71813427 -77.31790345 324.26836545 -85.1640625 328.3125 C-85.79231934 328.6429834 -86.42057617 328.9734668 -87.06787109 329.31396484 C-125.59793122 349.55149704 -172.51436789 359.45066669 -215.06225586 346.31054688 C-226.89030464 342.44564963 -238.43246559 337.62196263 -249.1640625 331.3125 C-249.1640625 330.6525 -249.1640625 329.9925 -249.1640625 329.3125 C-251.1440625 328.6525 -253.1240625 327.9925 -255.1640625 327.3125 C-255.1640625 326.6525 -255.1640625 325.9925 -255.1640625 325.3125 C-255.9478125 325.003125 -256.7315625 324.69375 -257.5390625 324.375 C-260.1640625 323.3125 -260.1640625 323.3125 -262.1640625 322.3125 C-262.1640625 321.6525 -262.1640625 320.9925 -262.1640625 320.3125 C-263.06125 319.879375 -263.06125 319.879375 -263.9765625 319.4375 C-266.1640625 318.3125 -266.1640625 318.3125 -269.1640625 316.3125 C-269.1640625 315.6525 -269.1640625 314.9925 -269.1640625 314.3125 C-269.8240625 314.3125 -270.4840625 314.3125 -271.1640625 314.3125 C-271.1640625 313.6525 -271.1640625 312.9925 -271.1640625 312.3125 C-271.8240625 312.3125 -272.4840625 312.3125 -273.1640625 312.3125 C-273.1640625 311.6525 -273.1640625 310.9925 -273.1640625 310.3125 C-274.05351562 309.92578125 -274.05351562 309.92578125 -274.9609375 309.53125 C-277.34067215 308.21480105 -278.67385042 306.88669218 -280.4140625 304.8125 C-280.93484375 304.2040625 -281.455625 303.595625 -281.9921875 302.96875 C-283.1640625 301.3125 -283.1640625 301.3125 -283.1640625 299.3125 C-283.8240625 299.3125 -284.4840625 299.3125 -285.1640625 299.3125 C-286.65748832 297.42670773 -288.01361883 295.55514038 -289.3515625 293.5625 C-289.75084961 292.97412354 -290.15013672 292.38574707 -290.56152344 291.77954102 C-306.1640625 268.54072336 -306.1640625 268.54072336 -306.1640625 260.3125 C-318.09159871 270.0744221 -326.52563444 281.07425384 -334.1640625 294.3125 C-334.65648437 295.15167969 -335.14890625 295.99085938 -335.65625 296.85546875 C-345.05779391 314.21452858 -348.42951692 332.86270788 -349.66796875 352.296875 C-350.33560481 360.3085077 -351.49104828 366.35579209 -357.1640625 372.3125 C-362.19388724 376.15811843 -367.20494767 377.00933456 -373.48046875 376.765625 C-379.03468657 375.82779492 -382.64594729 372.83061521 -386.5390625 368.9375 C-394.93313651 355.37784198 -389.79502596 332.54240667 -386.62792969 317.8203125 C-381.88248994 297.82225899 -373.33985443 279.08717622 -362.2890625 261.8125 C-361.81251221 261.06371582 -361.33596191 260.31493164 -360.8449707 259.54345703 C-359.67574884 257.76056678 -358.42692568 256.0303341 -357.1640625 254.3125 C-356.5040625 254.3125 -355.8440625 254.3125 -355.1640625 254.3125 C-354.8340625 252.9925 -354.5040625 251.6725 -354.1640625 250.3125 C-353.5040625 250.3125 -352.8440625 250.3125 -352.1640625 250.3125 C-351.8753125 249.714375 -351.5865625 249.11625 -351.2890625 248.5 C-350.1640625 246.3125 -350.1640625 246.3125 -348.1640625 243.3125 C-347.5040625 243.3125 -346.8440625 243.3125 -346.1640625 243.3125 C-346.1640625 242.6525 -346.1640625 241.9925 -346.1640625 241.3125 C-345.5040625 241.3125 -344.8440625 241.3125 -344.1640625 241.3125 C-343.926875 240.75046875 -343.6896875 240.1884375 -343.4453125 239.609375 C-341.87458553 236.79355958 -339.94934786 234.83294584 -337.6640625 232.5625 C-336.87 231.76328125 -336.0759375 230.9640625 -335.2578125 230.140625 C-333.1640625 228.3125 -333.1640625 228.3125 -331.1640625 228.3125 C-331.1640625 227.6525 -331.1640625 226.9925 -331.1640625 226.3125 C-329.15618976 224.69826796 -327.15309354 223.2143708 -325.0390625 221.75 C-324.40379639 221.30599854 -323.76853027 220.86199707 -323.11401367 220.40454102 C-321.13686068 219.03134858 -319.15112012 217.67130771 -317.1640625 216.3125 C-316.30723877 215.71695313 -316.30723877 215.71695313 -315.43310547 215.109375 C-275.68136154 187.59527905 -232.10342484 186.0215191 -185.3996582 186.40844727 C-181.44225401 186.44056841 -177.48484521 186.4564194 -173.52734375 186.47265625 C-171.73494011 186.49284569 -171.73494011 186.49284569 -169.90632629 186.51344299 C-163.06798471 186.53384107 -156.79941473 185.97903371 -150.1640625 184.3125 C-149.43661331 184.1629335 -148.70916412 184.013367 -147.95967102 183.85926819 C-145.99166986 183.47292983 -145.99166986 183.47292983 -145.01953125 181.51171875 C-144.73722656 180.78597656 -144.45492187 180.06023437 -144.1640625 179.3125 C-143.87144531 178.63832031 -143.57882812 177.96414062 -143.27734375 177.26953125 C-141.21724023 171.75247354 -140.32956158 167.02446879 -142.1640625 161.3125 C-144.56094726 156.76546862 -147.6188824 154.17712321 -152.51708984 152.63989258 C-159.0082873 150.84018991 -165.38325938 150.89993751 -172.078125 150.94921875 C-173.41881306 150.94973979 -174.75950189 150.9492127 -176.10018921 150.94770813 C-178.90577678 150.94779739 -181.71107435 150.95811176 -184.51660156 150.97631836 C-188.03489644 150.99869975 -191.55276195 150.9994106 -195.07110786 150.99306774 C-228.01839739 150.9481294 -264.58262426 151.4252832 -294.828125 166.17578125 C-299.09941196 168.25428377 -303.36092219 170.3125 -308.1640625 170.3125 C-307.56744362 165.42626692 -306.08943415 161.21700518 -304.1015625 156.75 C-303.6362915 155.70054199 -303.6362915 155.70054199 -303.16162109 154.62988281 C-296.78025077 140.60552326 -287.65957633 127.57597825 -277.1640625 116.3125 C-276.5040625 116.3125 -275.8440625 116.3125 -275.1640625 116.3125 C-275.1640625 115.6525 -275.1640625 114.9925 -275.1640625 114.3125 C-274.5040625 114.3125 -273.8440625 114.3125 -273.1640625 114.3125 C-272.89980469 113.71018555 -272.63554687 113.10787109 -272.36328125 112.48730469 C-271.10839257 110.21154158 -270.00793023 109.10190472 -267.9765625 107.515625 C-267.36039062 107.03222656 -266.74421875 106.54882812 -266.109375 106.05078125 C-265.14644531 105.31408203 -265.14644531 105.31408203 -264.1640625 104.5625 C-263.52210938 104.05589844 -262.88015625 103.54929687 -262.21875 103.02734375 C-257.43250927 99.3125 -257.43250927 99.3125 -255.1640625 99.3125 C-255.1640625 98.6525 -255.1640625 97.9925 -255.1640625 97.3125 C-246.86182353 92.36551071 -238.4973337 87.79796833 -229.6015625 84 C-228.88444092 83.68740234 -228.16731934 83.37480469 -227.4284668 83.05273438 C-215.34744218 78.03579975 -203.14174983 75.71171578 -190.1640625 74.625 C-188.80463124 74.50118586 -187.44525693 74.37674491 -186.0859375 74.25170898 C-178.11726356 73.53938468 -170.16128778 73.10914355 -162.1640625 72.875 C-144.6668335 72.32058648 -127.74389163 68.82052395 -111.1640625 63.3125 C-110.46619629 63.08836426 -109.76833008 62.86422852 -109.04931641 62.63330078 C-98.22077495 59.14363891 -88.16980815 54.7144487 -78.1640625 49.3125 C-77.08850098 48.73266357 -77.08850098 48.73266357 -75.99121094 48.14111328 C-73.81355841 46.9589453 -71.64323835 45.76465724 -69.4765625 44.5625 C-68.48740845 44.01565552 -68.48740845 44.01565552 -67.47827148 43.45776367 C-63.75294167 41.35260315 -60.45284399 39.07372951 -57.1640625 36.3125 C-55.85252078 35.3112435 -54.54001718 34.31124574 -53.2265625 33.3125 C-49.03949506 30.0543282 -44.96137589 26.67901064 -40.9140625 23.25 C-40.32375244 22.75564453 -39.73344238 22.26128906 -39.12524414 21.75195312 C-36.26654496 19.31076225 -33.72130702 16.87888555 -31.3671875 13.94140625 C-30.64015625 13.07386719 -29.913125 12.20632812 -29.1640625 11.3125 C-28.5040625 11.3125 -27.8440625 11.3125 -27.1640625 11.3125 C-26.77347656 10.41917969 -26.77347656 10.41917969 -26.375 9.5078125 C-25.08554662 7.17015831 -23.82866628 5.88865425 -21.7890625 4.1875 C-21.20382812 3.68992187 -20.61859375 3.19234375 -20.015625 2.6796875 C-14.17198548 -1.63523619 -6.94065693 -2.20497404 0 0 Z " fill="#ADD6B7" transform="translate(439.1640625,49.6875)"/>
<path d="M0 0 C0 3 0 3 -1.4609375 4.5 C-2.09257812 4.995 -2.72421875 5.49 -3.375 6 C-5.86340153 7.96614442 -7.1957287 9.29359306 -9 12 C-9.66 12 -10.32 12 -11 12 C-11 11.34 -11 10.68 -11 10 C-10.34 10 -9.68 10 -9 10 C-8.74476563 9.40703125 -8.48953125 8.8140625 -8.2265625 8.203125 C-6.88183502 5.78775462 -5.50785633 4.48788294 -3.375 2.75 C-2.74335938 2.22921875 -2.11171875 1.7084375 -1.4609375 1.171875 C-0.73777344 0.59179688 -0.73777344 0.59179688 0 0 Z " fill="#BBE2C5" transform="translate(175,154)"/>
<path d="M0 0 C0.66 0 1.32 0 2 0 C0.55746343 3.36591866 -1.33264727 5.51047079 -4 8 C-4.99 7.67 -5.98 7.34 -7 7 C-5.37660195 5.29115995 -3.70680947 3.62553283 -2 2 C-1.34 2 -0.68 2 0 2 C0 1.34 0 0.68 0 0 Z " fill="#C3E4C9" transform="translate(108,276)"/>
<path d="M0 0 C0.66 0 1.32 0 2 0 C1.1875 1.9375 1.1875 1.9375 0 4 C-0.99 4.33 -1.98 4.66 -3 5 C-3 5.66 -3 6.32 -3 7 C-3.66 6.67 -4.32 6.34 -5 6 C-3.38405168 3.95880212 -1.7143618 1.95927063 0 0 Z " fill="#C1E5CF" transform="translate(162,166)"/>
</svg>
